# xmcd
#
# Track frame offsets:
#	150
#	17433
#	34482
#	54081
#	69872
#	85291
#	101722
#	115296
#	129558
#	147297
#	164952
#	180772
#	197659
#	215342
#	233799
#	251010
#	267608
#	285135
#
# Disc length: 3993 seconds
#
# Revision: 1
# Processed by: cddbd v1.4PL0 Copyright (c) Steve Scherf et al.
# Submitted via: audiograbber 1.82.00
#
DISCID=fd0f9712
DTITLE=Various Artist - Hott Country 80
DYEAR=2002
DGENRE=Country
TTITLE0=Dixie Chicks - Landslide
TTITLE1=Faith Hill - Cry
TTITLE2=Willie Nelson - Maria ( Shut Up And Kiss Me )
TTITLE3=Brooks and Dunn - Every River
TTITLE4=Terri Clark - I Just Wanna Be Mad
TTITLE5=L. J. Daylee - I Can Fly
TTITLE6=Aaron Tippin - If Her Lovin' Don't Kill Me
TTITLE7=Tanya Tucker - A Memory Like I'm Gonna Be
TTITLE8=John Michael Montgomery - Til Nothing Comes Between Us
TTITLE9=Hometown News - Wheels
TTITLE10=Blackhawk - I Will
TTITLE11=Litle Big Town - Everything Changes
TTITLE12=Chad Brock - A Mans Gotta Do
TTITLE13=Andy Griggs/Martina McBride - Practice Life
TTITLE14=Jameson Clark - You Da Man
TTITLE15=Billy Gilman - Count On Me
TTITLE16=Shannon Lawson - Dream Your Way To Me
TTITLE17=Alison Krauss - Sitting In The Window Of My Room
EXTD=
EXTT0=
EXTT1=
EXTT2=
EXTT3=
EXTT4=
EXTT5=
EXTT6=
EXTT7=
EXTT8=
EXTT9=
EXTT10=
EXTT11=
EXTT12=
EXTT13=
EXTT14=
EXTT15=
EXTT16=
EXTT17=
PLAYORDER=
